<svg xmlns="http://www.w3.org/2000/svg">
 <defs>
    <style>
      .sprite {
        display: none;
      }
      .sprite:target {
        display: block;
      }
    </style>
  </defs>
  <symbol id="logo-vk" viewBox="0 0 24 14">
    <path fill-rule="evenodd"
      d="M23.45.948c.166-.546 0-.948-.795-.948H20.03c-.668 0-.976.347-1.143.73 0 0-1.335 3.196-3.226 5.272-.612.602-.89.793-1.224.793-.167 0-.418-.191-.418-.738V.948c0-.656-.184-.948-.74-.948H9.151c-.417 0-.668.304-.668.593 0 .621.946.765 1.043 2.513v3.798c0 .833-.153.984-.487.984-.89 0-3.055-3.211-4.34-6.885C4.45.288 4.198 0 3.527 0H.9C.15 0 0 .347 0 .73c0 .682.89 4.07 4.145 8.551C6.315 12.341 9.37 14 12.153 14c1.669 0 1.875-.368 1.875-1.003v-2.313c0-.737.158-.884.687-.884.39 0 1.057.192 2.615 1.667C19.11 13.216 19.403 14 20.405 14h2.625c.75 0 1.126-.368.91-1.096-.238-.724-1.088-1.775-2.215-3.022-.612-.71-1.53-1.475-1.809-1.858-.389-.491-.278-.71 0-1.147 0 0 3.2-4.426 3.533-5.929h.001Z"
      clip-rule="evenodd" />
  </symbol>
  <symbol id="logo-tg" viewBox="0 0 22 18">
    <path fill-rule="evenodd"
      d="m21.44 1.622-3.17 14.944c-.239 1.055-.862 1.317-1.748.82l-4.828-3.557-2.33 2.24c-.258.259-.473.474-.97.474l.347-4.917 8.948-8.086c.39-.347-.084-.54-.604-.192L6.022 10.314 1.26 8.823C.224 8.5.205 7.787 1.476 7.29L20.103.113c.863-.323 1.617.192 1.336 1.51Z"
      clip-rule="evenodd" />
  </symbol>
  <symbol id="logo-yt" viewBox="0 0 20 14">
    <path fill-rule="evenodd"
      d="M17.181 0H2.813C1.306 0 0 1.3 0 2.8v8.3C0 12.7 1.306 14 2.813 14h14.368c1.608 0 2.814-1.3 2.814-2.8V2.8c.1-1.5-1.206-2.8-2.814-2.8ZM7.033 10.4V3.6L13.866 7l-6.833 3.4Z"
      clip-rule="evenodd" />
  </symbol>
  <symbol id="logo-copyright" viewBox="0 0 24 29">
    <path fill="currentColor"
      d="M12.134 0h-.09L0 1.19v21.007L12.045 29 24 22.197V1.19L12.134 0Zm10.17 10.29-10.26-5.783v-.085h-.089l-.089-.085v.085L1.696 10.29V2.636l10.26-1.02 10.349 1.02v7.654ZM11.956 5.783l10.26 5.698-4.014 2.211-6.335-3.572v1.19l5.264 2.977-.803.426-4.46-2.552v1.19l3.39 1.957-.714.425-2.677-1.53v1.19l1.695.935-1.606.936-10.17-5.698 10.17-5.783Zm-10.26 7.059 10.171 5.783v.85l-7.048-3.997v1.19l7.137 4.083v.935L4.818 17.69v1.19l7.137 4.083 7.227-4.167v-4.423l3.034-1.7v8.504l-10.26 5.868-10.26-5.783v-8.42Z" />
  </symbol>
  <svg class="sprite" id="house-icon" viewBox="0 0 75 72">
    <path fill-rule="evenodd" clip-rule="evenodd" d="M72.8916 39.1823L75 37.0939L65.0602 27.2486V0.39779H51.2048V13.5249L37.4498 0L0 37.1934L2.10843 39.2818L9.93976 31.5249V69.116H6.0241V72H70.1807V69.116H65.0602V31.4254L72.8916 39.1823ZM54.1165 3.38122H62.0482V24.3646L54.1165 16.5083V3.38122ZM62.0482 69.0166H12.9518V28.5414L37.4498 4.1768L62.0482 28.5414V69.0166ZM30.1206 64.5414H46.1849V40.7734H30.1206V64.5414ZM43.1728 61.6574H33.0323V43.6574H43.1728V61.6574ZM37.8515 35.3039C33.6347 35.3039 30.1206 31.8232 30.1206 27.547C30.1206 23.2707 33.5343 19.8895 37.8515 19.8895C42.1688 19.8895 45.6829 23.2707 45.6829 27.547C45.6829 31.8232 42.1688 35.3039 37.8515 35.3039ZM42.8716 27.547C42.8716 24.7625 40.5624 22.5746 37.8515 22.5746C35.1407 22.5746 32.8315 24.8619 32.8315 27.547C32.8315 30.3315 35.1407 32.5194 37.8515 32.5194C40.6628 32.5194 42.8716 30.2321 42.8716 27.547ZM20.0803 40.7734H17.0683V44.6519H20.0803V40.7734ZM23.0924 40.7734H26.1044V44.6519H23.0924V40.7734ZM20.0803 46.7404H17.0683V50.6188H20.0803V46.7404ZM23.0924 46.7404H26.1044V50.6188H23.0924V46.7404ZM52.2088 40.7734H49.1968V44.6519H52.2088V40.7734ZM55.2209 40.7734H58.2329V44.6519H55.2209V40.7734ZM52.2088 46.7404H49.1968V50.6188H52.2088V46.7404ZM55.2209 46.7404H58.2329V50.6188H55.2209V46.7404Z" fill="#81B3D2"/>
  </svg>
  <svg class="sprite" id="burger-icon" viewBox="0 0 76 69">
    <path fill-rule="evenodd" clip-rule="evenodd" d="M70.5314 30.3747L70.5314 30.3739C70.5547 29.5459 70.5862 28.4289 70.5144 28.1408C69.8163 12.5181 55.4541 0 37.8005 0C20.147 0 5.68504 12.5181 4.98688 28.1408V31.1451H70.5144C70.5144 30.9766 70.5223 30.6976 70.5314 30.3747ZM37.8005 3.00435C53.7585 3.00435 66.9239 14.2206 67.5223 28.1408H7.979C8.67717 14.2206 21.8425 3.00435 37.8005 3.00435ZM21.2441 42.8621L15.8583 38.8563L10.3727 42.8621L3.9895 38.1553L5.78478 35.7518L10.3727 39.0566L15.8583 35.0508L21.2441 39.0566L26.7297 35.0508L32.2152 39.0566L37.7008 35.0508L43.0866 39.0566L48.5722 35.0508L54.0577 39.0566L59.5433 35.0508L65.0289 39.0566L69.6168 35.7518L71.3123 38.1553L65.0289 42.8621L59.5433 38.8563L54.0577 42.8621L48.5722 38.8563L43.0866 42.8621L37.7008 38.8563L32.2152 42.8621L26.7297 38.8563L21.2441 42.8621ZM4.28871 46.0667H71.7113C74.105 46.0667 76 48.0696 76 50.2727V53.7778C76 56.1813 74.0053 58.0841 71.7113 58.0841H70.7139V59.0855C70.7139 64.4934 66.3255 68.9999 60.8399 68.9999H15.1601C9.77428 68.9999 5.28609 64.5935 5.28609 59.0855V58.0841H4.28871C1.89501 58.0841 0 56.1813 0 53.878V50.3729C0 48.0696 1.89501 46.0667 4.28871 46.0667ZM60.9396 65.9955C64.7297 65.9955 67.8215 62.891 67.8215 59.0855V58.0841H8.17848V59.0855C8.17848 62.891 11.2703 65.9955 15.0604 65.9955H60.9396ZM71.7113 55.0797C72.4095 55.0797 73.0079 54.4788 73.0079 53.7778H73.1076V50.3729C73.1076 49.6719 72.5092 49.071 71.811 49.071H4.28871C3.59055 49.071 2.99213 49.6719 2.99213 50.2727V53.7778C2.99213 54.4788 3.59055 55.0797 4.28871 55.0797H71.7113ZM39.895 15.6228C39.895 16.7289 39.0019 17.6257 37.9003 17.6257C36.7986 17.6257 35.9055 16.7289 35.9055 15.6228C35.9055 14.5166 36.7986 13.6199 37.9003 13.6199C39.0019 13.6199 39.895 14.5166 39.895 15.6228ZM29.9213 12.6184C31.0229 12.6184 31.916 11.7216 31.916 10.6155C31.916 9.50928 31.0229 8.61255 29.9213 8.61255C28.8196 8.61255 27.9265 9.50928 27.9265 10.6155C27.9265 11.7216 28.8196 12.6184 29.9213 12.6184ZM47.874 10.6155C47.874 11.7216 46.9809 12.6184 45.8793 12.6184C44.7776 12.6184 43.8845 11.7216 43.8845 10.6155C43.8845 9.50928 44.7776 8.61255 45.8793 8.61255C46.9809 8.61255 47.874 9.50928 47.874 10.6155Z" fill="#81B3D2"/>
  </svg>
  <svg class="sprite" id="gift-icon" viewBox="0 0 63 75">
    <path d="M60.2 22.1167H60.1H35.8C49.4 15.3189 50.5 11.0202 50 8.62098C48.9 4.72221 44.4 1.72316 40.2 3.32266C34.7 5.42199 33.2 13.6194 31.7 19.5175C29.8 13.5194 28 5.92183 23.7 2.02307C22.5 0.923414 20.7 -0.176239 18 0.0236982C14 0.423572 8.3 5.32202 10.7 10.8203C12.9 16.1186 20.2 19.5175 25.1 22.2167H2.8C1.2 22.2167 0 23.5163 0 25.0158V36.2123C0 37.8118 1.3 39.0114 2.8 39.0114H3.1V75H60.1V39.0114H60.2C61.8 39.0114 63 37.7118 63 36.2123V25.0158C63 23.4163 61.7 22.1167 60.2 22.1167ZM41.8 5.82187C43.9 5.52196 46.7 7.12146 47 9.02085C47.4 11.72 43.7 14.2192 42 15.3189C39.5 17.0183 37.1 17.918 34.8 19.3176C35.6 15.6188 37.3 6.42168 41.8 5.82187ZM19.2 15.6188C17 14.1192 12.8 11.2202 12.9 7.9212C13 4.32234 18.6 1.42326 21.6 4.1224C25.4 7.42136 27.2 15.1189 28.6 20.5172C25.4 18.9177 22.4 17.7181 19.2 15.6188ZM25.1 72.0009H6V39.0114H25.1V72.0009ZM25.1 36.0123H3V25.1158H25.1V36.0123ZM35.1 72.0009H28V25.1158H35.1V72.0009ZM57.1 72.0009H38.1V39.0114H57.2V72.0009H57.1ZM60 36.0123H38.1V25.1158H60V36.0123Z" fill="#81B3D2"/>
  </svg>
  <svg class="sprite" id="icon-menu--opened" width="23" height="23" viewBox="0 0 23 23">
    <path d="M22.2 2.8L19.4 0L11.1 8.3L2.8 0L0 2.8L8.3 11.1L0 19.4L2.8 22.2L11.1 13.9L19.4 22.2L22.2 19.4L13.9 11.1L22.2 2.8Z" fill="white"/>
  </svg>
  <svg class="sprite" id="icon-menu--closed" width="24" height="20" viewBox="0 0 24 20">
    <path d="M24 0H0V4H24V0Z" fill="#81B3D2"/>
    <path d="M24 8H0V12H24V8Z" fill="#81B3D2"/>
    <path d="M24 16H0V20H24V16Z" fill="#81B3D2"/>
  </svg>
  <defs>
    <path id="like-icon" d="M12.9636 3.78L12.3364 6.825L11.7091 9.45H14.3227H20.8045V11.55C20.8045 11.55 20.8045 11.55 20.8045 11.655L17.7727 18.9H8.36364V8.4L12.9636 3.78ZM2.09091 10.5V18.9V10.5ZM13.8 0L6.9 6.93C6.48182 7.245 6.27273 7.77 6.27273 8.4V18.9C6.27273 20.055 7.21364 21 8.36364 21H17.7727C18.6091 21 19.3409 20.475 19.6545 19.74L22.7909 12.285C22.8955 12.075 22.8955 11.76 22.8955 11.55V9.45H23C23 8.295 22.0591 7.35 20.9091 7.35H14.3227L15.3682 2.52V2.205C15.3682 1.785 15.1591 1.365 14.95 1.05L13.8 0ZM4.18182 8.4H0V21H4.18182V8.4Z"/>
  </defs>
  <svg class="sprite" id="like-icon--white" width="23" height="21" viewBox="0 0 23 21">
    <use href="#like-icon" fill="#ffffff" />
  </svg>
  <svg class="sprite" id="like-icon--black" width="23" height="21" viewBox="0 0 23 21">
    <use href="#like-icon" opacity="0.3" fill="#000000" />
  </svg>
  <svg class="sprite" id="play-logo" width="48" height="54" viewBox="0 0 48 54">
    <path d="M48 27L0 54L2.42273e-06 0L48 27Z" fill="white" fill-opacity="0.7"/>
  </svg>
  <svg class="sprite" id="phone" width="18" height="18" viewBox="0 0 18 18">
    <path d="M3.6 7.8C5 10.6 7.4 12.9 10.2 14.4L12.4 12.2C12.7 11.9 13.1 11.8 13.4 12C14.5 12.4 15.7 12.6 17 12.6C17.6 12.6 18 13 18 13.6V17C18 17.6 17.6 18 17 18C7.6 18 0 10.4 0 1C0 0.4 0.4 0 1 0H4.5C5.1 0 5.5 0.4 5.5 1C5.5 2.2 5.7 3.4 6.1 4.6C6.2 4.9 6.1 5.3 5.9 5.6L3.6 7.8Z" fill="#010101"/>
  </svg>
  <svg class="sprite" id="mail" width="16" height="12" viewBox="0 0 16 12">
    <path d="M8 8C7.7 8 7.5 7.9 7 7.7L0 4V11C0 11.5 0.5 12 1 12H15C15.5 12 16 11.5 16 11V4L9 7.7C8.5 7.9 8.3 8 8 8ZM15 0H1C0.5 0 0 0.5 0 1V1.8L8 6L16 1.8V1C16 0.5 15.5 0 15 0Z" fill="black"/>
  </svg>
  <svg class="sprite" id="tick" width="22" height="16" viewBox="0 0 22 16">
    <path d="M21.8053 1.30662L20.759 0.22188C20.4736 -0.0739599 19.9029 -0.0739599 19.6176 0.22188L8.29884 11.9569L2.40167 5.84283C2.11633 5.54699 1.54563 5.54699 1.26028 5.84283L0.21401 6.92758C-0.0713367 7.22342 -0.0713367 7.8151 0.21401 8.11094L7.63303 15.8028C7.82326 16 8.01349 16 8.20373 16C8.39396 16 8.58419 15.9014 8.77442 15.8028L21.615 2.48999C22.0906 2.19415 22.0906 1.70108 21.8053 1.30662Z" fill="#333333"/>
  </svg>
</svg>
